<svg xmlns="http://www.w3.org/2000/svg" viewBox="0 0 48 48">
  <rect width="48" height="48" rx="10" fill="#24292E"/>
  <path fill-rule="evenodd" clip-rule="evenodd" d="M24 7C14.6 7 7 14.8 7 24.4c0 7.7 4.9 14.2 11.7 16.5.9.2 1.2-.4 1.2-.8v-2.9c-4.8 1.1-5.8-2.4-5.8-2.4-.8-2-1.9-2.6-1.9-2.6-1.6-1.1.1-1.1.1-1.1 1.7.1 2.6 1.8 2.6 1.8 1.5 2.7 4 1.9 5 1.4.2-1.1.6-1.9 1.1-2.3-3.8-.4-7.8-2-7.8-8.8 0-1.9.7-3.5 1.8-4.8-.2-.4-.8-2.2.2-4.7 0 0 1.5-.5 4.8 1.8 1.4-.4 2.9-.6 4.4-.6 1.5 0 3 .2 4.4.6 3.3-2.3 4.8-1.8 4.8-1.8 1 2.5.4 4.3.2 4.7 1.1 1.3 1.8 2.9 1.8 4.8 0 6.8-4 8.4-7.9 8.8.6.6 1.2 1.7 1.2 3.4v5c0 .5.3 1 1.2.8C36.1 38.6 41 32.1 41 24.4 41 14.8 33.4 7 24 7Z" fill="white"/>
</svg>
