<svg xmlns="http://www.w3.org/2000/svg" viewBox="0 0 48 48">
  <rect width="48" height="48" rx="10" fill="#4285F4"/>
  <path d="M35.5 24.3c0-.8-.1-1.6-.2-2.3H24v4.4h6.5c-.3 1.5-1.1 2.8-2.4 3.6v3h3.9c2.3-2.1 3.5-5.2 3.5-8.7Z" fill="white"/>
  <path d="M24 37c3.2 0 5.9-1.1 7.9-2.9l-3.9-3c-1.1.7-2.4 1.2-4 1.2-3.1 0-5.7-2.1-6.6-4.9h-4v3.1C11.9 34.4 17.6 37 24 37Z" fill="#34A853"/>
  <path d="M17.4 27.4c-.2-.7-.4-1.5-.4-2.4s.1-1.6.4-2.4v-3.1h-4A13 13 0 0 0 11 25c0 2.1.5 4.1 1.4 5.8l4-3.4Z" fill="#FBBC05"/>
  <path d="M24 17.7c1.7 0 3.3.6 4.5 1.8l3.4-3.4C29.9 14.1 27.2 13 24 13c-6.4 0-12.1 3.6-14 9.1l4 3.1c.9-2.8 3.5-7.5 10-7.5Z" fill="#EA4335"/>
</svg>
