<svg xmlns="http://www.w3.org/2000/svg" viewBox="0 0 48 48">
  <rect width="48" height="48" rx="10" fill="#10A37F"/>
  <path fill-rule="evenodd" clip-rule="evenodd" d="M30.6 14.4c1.8.6 3.2 1.9 3.9 3.6.5 1.2.5 2.5.1 3.7.8.7 1.4 1.6 1.7 2.7.5 1.8.1 3.7-1 5.1.2.9.2 1.8-.1 2.7-.7 1.7-2.1 3-3.9 3.6-1 .3-2 .3-3 0-.6.7-1.4 1.2-2.3 1.5-1.8.5-3.7.1-5-1-.7.2-1.5.2-2.2 0-1.8-.6-3.2-1.9-3.9-3.6-.5-1.2-.5-2.5-.1-3.7-.8-.7-1.4-1.6-1.7-2.7-.5-1.8-.1-3.7 1-5.1-.2-.9-.2-1.8.1-2.7.7-1.7 2.1-3 3.9-3.6 1-.3 2-.3 3 0 .6-.7 1.4-1.2 2.3-1.5 1.8-.5 3.7-.1 5 1 .7-.2 1.4-.2 2.2 0ZM24 20.5a3.5 3.5 0 1 0 0 7 3.5 3.5 0 0 0 0-7Z" fill="white"/>
</svg>
